<svg xmlns="http://www.w3.org/2000/svg" width="154.51" height="30.466" viewBox="0 0 154.51 30.466">
  <!-- <g id="aboutme" transform="translate(-61.252 -109.836)">
    <path id="パス_1" data-name="パス 1" d="M203,290.573l8.874-22.415,7.236,18.213.278.7,1.391,3.5" transform="translate(-141 -158.027)" fill="none" stroke="#2b5e96" stroke-linejoin="bevel" stroke-width="1.4"/>
    <path id="パス_2" data-name="パス 2" d="M206.754,283.035h10.928" transform="translate(-141.291 -158.213)" fill="#2b5e96" stroke="#2b5e96" stroke-width="1.4"/>
    <path id="パス_3" data-name="パス 3" d="M228.506,273.224v16.312" transform="translate(-141 -158)" fill="none" stroke="#343434" stroke-width="1.4"/>
    <path id="パス_4" data-name="パス 4" d="M227.793,273.549h8.357c.977,0,3.365,1.037,3.4,3.252s-1.131,4.482-6.125,4.473-4.426,0-4.426,0,6.835-.271,8.355.3,3.1,1.555,2.967,3.7-1.42,4.017-4.709,4.064-7.821,0-7.821,0" transform="translate(-141 -158)" fill="none" stroke="#343434" stroke-width="1.5"/>
    <path id="パス_5" data-name="パス 5" d="M254.872,273.236a6.742,6.742,0,0,0-6.047,3.067,10.677,10.677,0,0,0-1.247,7.387,8.2,8.2,0,0,0,3.154,4.955,7.557,7.557,0,0,0,4.14,1.116,8.813,8.813,0,0,0,4.23-1.226,6.794,6.794,0,0,0,1.379-1.312c1.473-1.385,2.793-6.9.477-10.92C259.351,273.52,255.418,273.227,254.872,273.236Z" transform="translate(-141 -158)" fill="none" stroke="#343434" stroke-width="1.4"/>
    <path id="パス_6" data-name="パス 6" d="M270.067,272.848s-.117,7.9,0,10.032,0,4.5,2.312,5.9a7.019,7.019,0,0,0,7.162,0c1.883-1.21,2.467-3.812,2.47-6.3s0-9.639,0-9.639" transform="translate(-141 -158)" fill="none" stroke="#343434" stroke-width="1.4"/>
    <path id="パス_7" data-name="パス 7" d="M288.448,273.429h14.075" transform="translate(-141 -158)" fill="none" stroke="#343434" stroke-width="1.4"/>
    <path id="パス_8" data-name="パス 8" d="M295.486,273.429V290" transform="translate(-141 -158)" fill="none" stroke="#343434" stroke-width="1.4"/>
    <path id="パス_9" data-name="パス 9" d="M320.816,289.966V272.9l7.833,17.067,7.632-17.067v17.067" transform="translate(-141 -158)" fill="none" stroke="#343434" stroke-linejoin="bevel" stroke-width="1.4"/>
    <path id="パス_10" data-name="パス 10" d="M344.455,273.423H356.42" transform="translate(-141 -158)" fill="none" stroke="#343434" stroke-width="1.4"/>
    <path id="パス_11" data-name="パス 11" d="M345.13,272.9v16.51h11.632" transform="translate(-141 -158)" fill="none" stroke="#343434" stroke-width="1.4"/>
    <path id="パス_12" data-name="パス 12" d="M344.455,281.154h11.386" transform="translate(-141 -158)" fill="none" stroke="#343434" stroke-width="1.4"/>
    <path id="パス_13" data-name="パス 13" d="M257.508,297.5H301.47" transform="translate(-141 -158)" fill="none" stroke="#2b5e96" stroke-width="1.4"/>
  </g> -->
</svg>
