<svg xmlns="http://www.w3.org/2000/svg" width="154.51" height="30.466" viewBox="0 0 154.51 30.466" style="">
  <g id="aboutme" transform="translate(-61.252 -109.836)">
    <path id="パス_1" data-name="パス 1" d="M203,290.573l8.874-22.415,7.236,18.213.278.7,1.391,3.5" transform="translate(-141 -158.027)" fill="none" stroke="#2b5e96" stroke-linejoin="bevel" stroke-width="1.4" class="yUdZOyTt_0"></path>
    <path id="パス_2" data-name="パス 2" d="M206.754,283.035h10.928" transform="translate(-141.291 -158.213)" fill="#2b5e96" stroke="#2b5e96" stroke-width="1.4" class="yUdZOyTt_1"></path>
    <path id="パス_3" data-name="パス 3" d="M228.506,273.224v16.312" transform="translate(-141 -158)" fill="none" stroke="#343434" stroke-width="1.4" class="yUdZOyTt_2"></path>
    <path id="パス_4" data-name="パス 4" d="M227.793,273.549h8.357c.977,0,3.365,1.037,3.4,3.252s-1.131,4.482-6.125,4.473-4.426,0-4.426,0,6.835-.271,8.355.3,3.1,1.555,2.967,3.7-1.42,4.017-4.709,4.064-7.821,0-7.821,0" transform="translate(-141 -158)" fill="none" stroke="#343434" stroke-width="1.5" class="yUdZOyTt_3"></path>
    <path id="パス_5" data-name="パス 5" d="M254.872,273.236a6.742,6.742,0,0,0-6.047,3.067,10.677,10.677,0,0,0-1.247,7.387,8.2,8.2,0,0,0,3.154,4.955,7.557,7.557,0,0,0,4.14,1.116,8.813,8.813,0,0,0,4.23-1.226,6.794,6.794,0,0,0,1.379-1.312c1.473-1.385,2.793-6.9.477-10.92C259.351,273.52,255.418,273.227,254.872,273.236Z" transform="translate(-141 -158)" fill="none" stroke="#343434" stroke-width="1.4" class="yUdZOyTt_4"></path>
    <path id="パス_6" data-name="パス 6" d="M270.067,272.848s-.117,7.9,0,10.032,0,4.5,2.312,5.9a7.019,7.019,0,0,0,7.162,0c1.883-1.21,2.467-3.812,2.47-6.3s0-9.639,0-9.639" transform="translate(-141 -158)" fill="none" stroke="#343434" stroke-width="1.4" class="yUdZOyTt_5"></path>
    <path id="パス_7" data-name="パス 7" d="M288.448,273.429h14.075" transform="translate(-141 -158)" fill="none" stroke="#343434" stroke-width="1.4" class="yUdZOyTt_6"></path>
    <path id="パス_8" data-name="パス 8" d="M295.486,273.429V290" transform="translate(-141 -158)" fill="none" stroke="#343434" stroke-width="1.4" class="yUdZOyTt_7"></path>
    <path id="パス_9" data-name="パス 9" d="M320.816,289.966V272.9l7.833,17.067,7.632-17.067v17.067" transform="translate(-141 -158)" fill="none" stroke="#343434" stroke-linejoin="bevel" stroke-width="1.4" class="yUdZOyTt_8"></path>
    <path id="パス_10" data-name="パス 10" d="M344.455,273.423H356.42" transform="translate(-141 -158)" fill="none" stroke="#343434" stroke-width="1.4" class="yUdZOyTt_9"></path>
    <path id="パス_11" data-name="パス 11" d="M345.13,272.9v16.51h11.632" transform="translate(-141 -158)" fill="none" stroke="#343434" stroke-width="1.4" class="yUdZOyTt_10"></path>
    <path id="パス_12" data-name="パス 12" d="M344.455,281.154h11.386" transform="translate(-141 -158)" fill="none" stroke="#343434" stroke-width="1.4" class="yUdZOyTt_11"></path>
    <path id="パス_13" data-name="パス 13" d="M257.508,297.5H301.47" transform="translate(-141 -158)" fill="none" stroke="#2b5e96" stroke-width="1.4" class="yUdZOyTt_12"></path>
  </g>
<style data-made-with="vivus-instant">.yUdZOyTt_0{stroke-dasharray:49 51;stroke-dashoffset:50;animation:yUdZOyTt_draw 194ms linear 0ms forwards;}.yUdZOyTt_1{stroke-dasharray:11 13;stroke-dashoffset:12;animation:yUdZOyTt_draw 46ms linear 194ms forwards;}.yUdZOyTt_2{stroke-dasharray:17 19;stroke-dashoffset:18;animation:yUdZOyTt_draw 69ms linear 240ms forwards;}.yUdZOyTt_3{stroke-dasharray:55 57;stroke-dashoffset:56;animation:yUdZOyTt_draw 217ms linear 310ms forwards;}.yUdZOyTt_4{stroke-dasharray:51 53;stroke-dashoffset:52;animation:yUdZOyTt_draw 201ms linear 527ms forwards;}.yUdZOyTt_5{stroke-dasharray:41 43;stroke-dashoffset:42;animation:yUdZOyTt_draw 163ms linear 729ms forwards;}.yUdZOyTt_6{stroke-dasharray:15 17;stroke-dashoffset:16;animation:yUdZOyTt_draw 62ms linear 892ms forwards;}.yUdZOyTt_7{stroke-dasharray:17 19;stroke-dashoffset:18;animation:yUdZOyTt_draw 69ms linear 954ms forwards;}.yUdZOyTt_8{stroke-dasharray:72 74;stroke-dashoffset:73;animation:yUdZOyTt_draw 283ms linear 1024ms forwards;}.yUdZOyTt_9{stroke-dasharray:12 14;stroke-dashoffset:13;animation:yUdZOyTt_draw 50ms linear 1307ms forwards;}.yUdZOyTt_10{stroke-dasharray:29 31;stroke-dashoffset:30;animation:yUdZOyTt_draw 116ms linear 1358ms forwards;}.yUdZOyTt_11{stroke-dasharray:12 14;stroke-dashoffset:13;animation:yUdZOyTt_draw 50ms linear 1474ms forwards;}.yUdZOyTt_12{stroke-dasharray:44 46;stroke-dashoffset:45;animation:yUdZOyTt_draw 174ms linear 1525ms forwards;}@keyframes yUdZOyTt_draw{100%{stroke-dashoffset:0;}}@keyframes yUdZOyTt_fade{0%{stroke-opacity:1;}93.22033898305085%{stroke-opacity:1;}100%{stroke-opacity:0;}}</style></svg>
