<svg xmlns="http://www.w3.org/2000/svg" width="247.795" height="32.855" viewBox="0 0 247.795 32.855" style="">
  <g id="coding_policy" data-name="coding policy" transform="translate(-22.575 -113.345)">
    <path id="パス_15" data-name="パス 15" d="M216.362,348.009c-.025-3.382-4-6.181-8.4-5.949s-8.885,4.28-8.683,10.737,4.286,9.885,9.224,9.981a8.7,8.7,0,0,0,6.649-3.366,9.382,9.382,0,0,0,1.646-3.742" transform="translate(-176 -228)" fill="none" stroke="#d4a169" stroke-width="1.4" class="BHsOLpst_0"></path>
    <path id="パス_16" data-name="パス 16" d="M233.682,346.188c-5.736.044-7.013,5.894-7.079,8.168s1.31,8.355,7.309,8.3,7.55-4.66,7.569-8.3S239.418,346.145,233.682,346.188Z" transform="translate(-176 -228)" fill="none" stroke="#fff" stroke-width="1.4" class="BHsOLpst_1"></path>
    <path id="パス_17" data-name="パス 17" d="M60.39,405.871v17.137" transform="translate(14 -288)" fill="none" stroke="#fff" stroke-width="1.4" class="BHsOLpst_2"></path>
    <path id="パス_18" data-name="パス 18" d="M59.761,406.49s5.322-.049,6.564,0,6.835,1.008,6.642,7.7c-.176,3.4-.725,4.973-2.557,6.7-2.295,1.948-7.846,1.43-7.846,1.43H60.182" transform="translate(14 -288)" fill="none" stroke="#fff" stroke-width="1.4" class="BHsOLpst_3"></path>
    <path id="パス_19" data-name="パス 19" d="M82.2,405.866v17.148" transform="translate(14 -288)" fill="none" stroke="#fff" stroke-width="1.4" class="BHsOLpst_4"></path>
    <path id="パス_20" data-name="パス 20" d="M250.458,345.881v17.127" transform="translate(-144.258 -228)" fill="none" stroke="#fff" stroke-width="1.4" class="BHsOLpst_5"></path>
    <path id="パス_21" data-name="パス 21" d="M250.782,346.363l11.678,16.573.171-17.126" transform="translate(-144.242 -228)" fill="none" stroke="#fff" stroke-linejoin="bevel" stroke-width="1.4" class="BHsOLpst_6"></path>
    <path id="パス_22" data-name="パス 22" d="M127.045,411.427s-.12-4.858-6.033-5.054a6.587,6.587,0,0,0-4.835,1.352c-1.778,1.356-2.781,4.282-2.787,7.345a7.435,7.435,0,0,0,7.623,7.7,11,11,0,0,0,6.033-1.942v-5.755h-6.386" transform="translate(14 -288)" fill="none" stroke="#fff" stroke-width="1.4" class="BHsOLpst_7"></path>
    <path id="パス_23" data-name="パス 23" d="M149.452,405.829v17.164" transform="translate(14 -288)" fill="none" stroke="#fff" stroke-width="1.4" class="BHsOLpst_8"></path>
    <path id="パス_24" data-name="パス 24" d="M148.792,406.5s5.257-.066,7.135,0,5.033.558,4.825,4.644-4.825,3.949-4.825,3.949h-6.685" transform="translate(14 -288)" fill="none" stroke="#fff" stroke-width="1.4" class="BHsOLpst_9"></path>
    <path id="パス_25" data-name="パス 25" d="M233.682,346.188c-5.736.044-7.013,5.894-7.079,8.168s1.31,8.355,7.309,8.3,7.55-4.66,7.569-8.3S239.418,346.145,233.682,346.188Z" transform="translate(-43.95 -228)" fill="none" stroke="#fff" stroke-width="1.4" class="BHsOLpst_10"></path>
    <path id="パス_26" data-name="パス 26" d="M192.605,405.891v16.5h11.073" transform="translate(14 -288)" fill="none" stroke="#fff" stroke-width="1.4" class="BHsOLpst_11"></path>
    <path id="パス_27" data-name="パス 27" d="M211.715,405.891v17.143" transform="translate(13.99 -288)" fill="none" stroke="#fff" stroke-width="1.4" class="BHsOLpst_12"></path>
    <path id="パス_28" data-name="パス 28" d="M212.946,346.817c-.02-2.705-3.2-4.945-6.718-4.759s-7.108,3.424-6.947,8.59,3.429,7.908,7.379,7.985a6.959,6.959,0,0,0,5.32-2.693,7.506,7.506,0,0,0,1.316-2.994" transform="translate(35.524 -223.854)" fill="none" stroke="#fff" stroke-width="1.4" class="BHsOLpst_13"></path>
    <path id="パス_29" data-name="パス 29" d="M242.465,405.876l6.712,9.944" transform="translate(14 -288)" fill="none" stroke="#fff" stroke-width="1.4" class="BHsOLpst_14"></path>
    <path id="パス_30" data-name="パス 30" d="M255.787,405.876l-6.741,10.172v6.994" transform="translate(14 -288)" fill="none" stroke="#fff" stroke-width="1.4" class="BHsOLpst_15"></path>
    <path id="パス_31" data-name="パス 31" d="M88.747,433.5h85.842" transform="translate(14 -288)" fill="none" stroke="#d4a169" stroke-width="1.4" class="BHsOLpst_16"></path>
  </g>
<style data-made-with="vivus-instant">.BHsOLpst_0{stroke-dasharray:54 56;stroke-dashoffset:55;animation:BHsOLpst_draw 117ms linear 0ms forwards;}.BHsOLpst_1{stroke-dasharray:50 52;stroke-dashoffset:51;animation:BHsOLpst_draw 109ms linear 117ms forwards;}.BHsOLpst_2{stroke-dasharray:18 20;stroke-dashoffset:19;animation:BHsOLpst_draw 40ms linear 227ms forwards;}.BHsOLpst_3{stroke-dasharray:36 38;stroke-dashoffset:37;animation:BHsOLpst_draw 79ms linear 268ms forwards;}.BHsOLpst_4{stroke-dasharray:18 20;stroke-dashoffset:19;animation:BHsOLpst_draw 40ms linear 347ms forwards;}.BHsOLpst_5{stroke-dasharray:18 20;stroke-dashoffset:19;animation:BHsOLpst_draw 40ms linear 388ms forwards;}.BHsOLpst_6{stroke-dasharray:38 40;stroke-dashoffset:39;animation:BHsOLpst_draw 83ms linear 429ms forwards;}.BHsOLpst_7{stroke-dasharray:53 55;stroke-dashoffset:54;animation:BHsOLpst_draw 115ms linear 512ms forwards;}.BHsOLpst_8{stroke-dasharray:18 20;stroke-dashoffset:19;animation:BHsOLpst_draw 40ms linear 628ms forwards;}.BHsOLpst_9{stroke-dasharray:29 31;stroke-dashoffset:30;animation:BHsOLpst_draw 64ms linear 669ms forwards;}.BHsOLpst_10{stroke-dasharray:50 52;stroke-dashoffset:51;animation:BHsOLpst_draw 109ms linear 733ms forwards;}.BHsOLpst_11{stroke-dasharray:28 30;stroke-dashoffset:29;animation:BHsOLpst_draw 62ms linear 843ms forwards;}.BHsOLpst_12{stroke-dasharray:18 20;stroke-dashoffset:19;animation:BHsOLpst_draw 40ms linear 905ms forwards;}.BHsOLpst_13{stroke-dasharray:43 45;stroke-dashoffset:44;animation:BHsOLpst_draw 94ms linear 946ms forwards;}.BHsOLpst_14{stroke-dasharray:12 14;stroke-dashoffset:13;animation:BHsOLpst_draw 27ms linear 1040ms forwards;}.BHsOLpst_15{stroke-dasharray:20 22;stroke-dashoffset:21;animation:BHsOLpst_draw 45ms linear 1068ms forwards;}.BHsOLpst_16{stroke-dasharray:86 88;stroke-dashoffset:87;animation:BHsOLpst_draw 186ms linear 1113ms forwards;}@keyframes BHsOLpst_draw{100%{stroke-dashoffset:0;}}@keyframes BHsOLpst_fade{0%{stroke-opacity:1;}92.72727272727273%{stroke-opacity:1;}100%{stroke-opacity:0;}}</style></svg>
