<svg xmlns="http://www.w3.org/2000/svg" width="147.882" height="29.654" viewBox="0 0 147.882 29.654">
  <!-- <g id="contact" transform="translate(-24.575 -53.345)">
    <path id="パス_2" data-name="パス 2" d="M216.362,348.009c-.025-3.382-4-6.181-8.4-5.949s-8.885,4.28-8.683,10.737,4.286,9.885,9.224,9.981a8.7,8.7,0,0,0,6.649-3.366,9.382,9.382,0,0,0,1.646-3.742" transform="translate(-174 -288)" fill="none" stroke="#d4a169" stroke-width="1.4"/>
    <path id="パス_3" data-name="パス 3" d="M233.682,346.188c-5.736.044-7.013,5.894-7.079,8.168s1.31,8.355,7.309,8.3,7.55-4.66,7.569-8.3S239.418,346.145,233.682,346.188Z" transform="translate(-174 -288)" fill="none" stroke="#fff" stroke-width="1.4"/>
    <path id="パス_4" data-name="パス 4" d="M250.273,345.881" transform="translate(-174 -288)" fill="none" stroke="#fff" stroke-width="1.4"/>
    <path id="パス_5" data-name="パス 5" d="M250.458,345.881v17.127" transform="translate(-174 -288)" fill="none" stroke="#fff" stroke-width="1.4"/>
    <path id="パス_6" data-name="パス 6" d="M250.782,346.363l11.678,16.573.171-17.126" transform="translate(-174 -288)" fill="none" stroke="#fff" stroke-linejoin="bevel" stroke-width="1.4"/>
    <path id="パス_7" data-name="パス 7" d="M270.232,346.445h14.057" transform="translate(-174 -288)" fill="none" stroke="#fff" stroke-width="1.4"/>
    <path id="パス_8" data-name="パス 8" d="M277.261,346.693v16.288" transform="translate(-174 -288)" fill="none" stroke="#fff" stroke-width="1.4"/>
    <path id="パス_9" data-name="パス 9" d="M290.364,362.98l6.9-17.349,6.93,17.349" transform="translate(-174 -288)" fill="none" stroke="#fff" stroke-linejoin="bevel" stroke-width="1.4"/>
    <path id="パス_10" data-name="パス 10" d="M292.785,357.148h8.875" transform="translate(-174 -288)" fill="none" stroke="#fff" stroke-width="1.4"/>
    <path id="パス_11" data-name="パス 11" d="M212.946,346.817c-.02-2.705-3.2-4.945-6.718-4.759s-7.108,3.424-6.947,8.59,3.429,7.908,7.379,7.985a6.959,6.959,0,0,0,5.32-2.693,7.506,7.506,0,0,0,1.316-2.994" transform="translate(-61.776 -283.854)" fill="none" stroke="#fff" stroke-width="1.4"/>
    <path id="パス_12" data-name="パス 12" d="M270.232,346.445h14.057" transform="translate(-111.832 -288)" fill="none" stroke="#fff" stroke-width="1.4"/>
    <path id="パス_13" data-name="パス 13" d="M277.261,346.693v16.288" transform="translate(-111.861 -288)" fill="none" stroke="#fff" stroke-width="1.4"/>
    <path id="パス_14" data-name="パス 14" d="M249.526,370.3h44.083" transform="translate(-174 -288)" fill="none" stroke="#d4a169" stroke-width="1.4"/>
  </g> -->
</svg>
