<svg xmlns="http://www.w3.org/2000/svg" width="150.323" height="64.028" viewBox="0 0 150.323 64.028" style="">
  <defs>
    <style>
      .cls-1, .cls-2, .cls-3 {
        fill: none;
        stroke: #707070;
      }

      .cls-1 {
        stroke-width: 0.8px;
      }

      .cls-2 {
        stroke-width: 0.7px;
      }

      .cls-3 {
        stroke-width: 0.5px;
      }
    </style>
  </defs>
  <g id="logo" transform="translate(-25.82 -15.96)">
    <path id="パス_3" data-name="パス 3" class="cls-1 SJJGtMFy_0" d="M188.82,369.963h9.06" transform="translate(-163 -351)"></path>
    <path id="パス_4" data-name="パス 4" class="cls-1 SJJGtMFy_1" d="M193.187,370.418l0,35.3" transform="translate(-163 -351.419)"></path>
    <path id="パス_5" data-name="パス 5" class="cls-1 SJJGtMFy_2" d="M188.82,405.627h9.05" transform="translate(-163 -351)"></path>
    <path id="パス_6" data-name="パス 6" class="cls-1 SJJGtMFy_3" d="M209.427,369.963h9.3" transform="translate(-163.395 -351)"></path>
    <path id="パス_7" data-name="パス 7" class="cls-1 SJJGtMFy_4" d="M213.837,370l-20.353,19.439" transform="translate(-163.299 -351)"></path>
    <path id="パス_8" data-name="パス 8" class="cls-1 SJJGtMFy_5" d="M198.945,383.828l17.019,21.679" transform="translate(-163 -351)"></path>
    <path id="パス_9" data-name="パス 9" class="cls-1 SJJGtMFy_6" d="M211.929,405.627H221.1" transform="translate(-163.201 -351)"></path>
    <path id="パス_10" data-name="パス 10" class="cls-1 SJJGtMFy_7" d="M234.727,386.416a9.755,9.755,0,0,0-9.816,9.917,10.314,10.314,0,0,0,3.738,7.6,9.268,9.268,0,0,0,6.42,1.979,10.044,10.044,0,0,0,6.337-2.631,9.561,9.561,0,0,0,2.989-6.11c.011-.05.009-.469,0-.834,0,0,0,.465,0,.387a9.534,9.534,0,0,0-.7-4.259,9.3,9.3,0,0,0-2.291-3.313A10.067,10.067,0,0,0,234.727,386.416Z" transform="translate(-163 -351)"></path>
    <path id="パス_11" data-name="パス 11" class="cls-1 SJJGtMFy_8" d="M264.568,392.862v-4.4a14.305,14.305,0,0,0-2.976-1.535,9.449,9.449,0,0,0-3.5-.539c-3.452.07-9.443,3.6-9.257,9.82a9.829,9.829,0,0,0,7.082,9.421,11.691,11.691,0,0,0,2.612.3,10.046,10.046,0,0,0,6.26-2.172" transform="translate(-163 -351)"></path>
    <path id="パス_12" data-name="パス 12" class="cls-1 SJJGtMFy_9" d="M234.727,386.416a9.755,9.755,0,0,0-9.816,9.917,10.314,10.314,0,0,0,3.738,7.6,9.268,9.268,0,0,0,6.42,1.979,10.044,10.044,0,0,0,6.337-2.631,9.561,9.561,0,0,0,2.989-6.11c.011-.05.009-.469,0-.834,0,0,0,.465,0,.387a9.534,9.534,0,0,0-.7-4.259,9.3,9.3,0,0,0-2.291-3.313A10.067,10.067,0,0,0,234.727,386.416Z" transform="translate(-119 -351)"></path>
    <path id="パス_13" data-name="パス 13" class="cls-1 SJJGtMFy_10" d="M234.727,386.416a9.755,9.755,0,0,0-9.816,9.917,10.314,10.314,0,0,0,3.738,7.6,9.268,9.268,0,0,0,6.42,1.979,10.044,10.044,0,0,0,6.337-2.631,9.561,9.561,0,0,0,2.989-6.11c.011-.05.009-.469,0-.834,0,0,0,.465,0,.387a9.534,9.534,0,0,0-.7-4.259,9.3,9.3,0,0,0-2.291-3.313A10.067,10.067,0,0,0,234.727,386.416Z" transform="matrix(-0.017, 1, -1, -0.017, 539.864, -182.534)"></path>
    <path id="パス_14" data-name="パス 14" class="cls-1 SJJGtMFy_11" d="M308.3,367.36h4.142l.009,38.315H316.6" transform="translate(-163 -351)"></path>
    <path id="パス_15" data-name="パス 15" class="cls-1 SJJGtMFy_12" d="M321.04,399.489l17.592-7.2s-2.236-5.959-8.345-5.89a9.848,9.848,0,0,0-9.663,10.107,9.631,9.631,0,0,0,6.14,8.835,10.9,10.9,0,0,0,7.582-.242,12.337,12.337,0,0,0,1.829-1.091,10.066,10.066,0,0,0,.86-.68" transform="translate(-163 -351)"></path>
    <path id="パス_16" data-name="パス 16" class="cls-2 SJJGtMFy_13" d="M227.672,386.416a2.744,2.744,0,0,0-2.761,2.79,2.9,2.9,0,0,0,1.052,2.137,2.607,2.607,0,0,0,1.806.557,2.826,2.826,0,0,0,1.783-.74,2.69,2.69,0,0,0,.841-1.719c0-.014,0-.132,0-.235,0,0,0,.131,0,.109a2.682,2.682,0,0,0-.2-1.2,2.617,2.617,0,0,0-.644-.932A2.832,2.832,0,0,0,227.672,386.416Z" transform="translate(441.675 -147.836) rotate(91)"></path>
    <path id="パス_17" data-name="パス 17" class="cls-2 SJJGtMFy_14" d="M213.053,415.249h1.575v11.426h1.411" transform="translate(-163 -351)"></path>
    <path id="パス_18" data-name="パス 18" class="cls-2 SJJGtMFy_15" d="M320.737,390.2l2.508-1.027,2.6-1.066a2.7,2.7,0,0,0-2.424-1.711,2.861,2.861,0,0,0-2.807,2.936A2.8,2.8,0,0,0,322.4,391.9a3.166,3.166,0,0,0,2.2-.07,3.583,3.583,0,0,0,.531-.317,2.926,2.926,0,0,0,.25-.2" transform="translate(-266.164 -316.245)"></path>
    <path id="パス_19" data-name="パス 19" class="cls-2 SJJGtMFy_16" d="M227.783,422.641v-1.129a4.641,4.641,0,0,0-1.54-.252,1.423,1.423,0,0,0-1.2,1.179,1.053,1.053,0,0,0,.6,1.143c.272.127,1.539.291,2.027.921a1.307,1.307,0,0,1-.1,1.826,1.945,1.945,0,0,1-1.8.434,2.48,2.48,0,0,1-.969-.434v-1" transform="translate(-163 -351)"></path>
    <path id="パス_20" data-name="パス 20" class="cls-2 SJJGtMFy_17" d="M229.382,421.315h1.56v5.07" transform="translate(-163 -351)"></path>
    <path id="パス_21" data-name="パス 21" class="cls-2 SJJGtMFy_18" d="M229.382,426.652h3.1" transform="translate(-163 -351)"></path>
    <path id="パス_22" data-name="パス 22" class="cls-3 SJJGtMFy_19" d="M231.216,418.95c.025-.16-.135-.378-.263-.369a.351.351,0,0,0-.293.306c0,.148.244.255.293.262A.267.267,0,0,0,231.216,418.95Z" transform="translate(-163 -351)"></path>
    <path id="パス_23" data-name="パス 23" class="cls-2 SJJGtMFy_20" d="M227.742,386.416a2.813,2.813,0,0,0-2.831,2.86,2.975,2.975,0,0,0,1.078,2.191,2.673,2.673,0,0,0,1.852.571,2.9,2.9,0,0,0,1.828-.759,2.758,2.758,0,0,0,.862-1.762c0-.015,0-.135,0-.241,0,0,0,.134,0,.111a2.75,2.75,0,0,0-.2-1.228,2.683,2.683,0,0,0-.661-.956A2.9,2.9,0,0,0,227.742,386.416Z" transform="translate(450.506 -174.825) rotate(87)"></path>
    <path id="パス_24" data-name="パス 24" class="cls-2 SJJGtMFy_21" d="M241.056,421.315h-1.512s.072,5.9,0,6.577-.631,2.858-2.713,2.738-2.193-1-2.193-1" transform="translate(-163 -351)"></path>
    <path id="パス_25" data-name="パス 25" class="cls-2 SJJGtMFy_22" d="M242.356,421.315h1.386v5.078" transform="translate(-163 -351)"></path>
    <path id="パス_26" data-name="パス 26" class="cls-2 SJJGtMFy_23" d="M242.192,426.637h3.086" transform="translate(-163 -351)"></path>
    <path id="パス_27" data-name="パス 27" class="cls-2 SJJGtMFy_24" d="M243.742,423.459s.942-2.11,2.283-2.263a1.915,1.915,0,0,1,2.061.767,1.713,1.713,0,0,1,.267.873v3.532" transform="translate(-163 -351)"></path>
    <path id="パス_28" data-name="パス 28" class="cls-2 SJJGtMFy_25" d="M246.751,426.637h3.04" transform="translate(-163 -351)"></path>
    <path id="パス_29" data-name="パス 29" class="cls-2 SJJGtMFy_26" d="M262.272,415.979a3.131,3.131,0,0,0-2.543-.483,2.064,2.064,0,0,0-1.5,2.292,2.245,2.245,0,0,0,.4,1.229c.1.168,5.04,8.122,5.04,8.122" transform="translate(-163 -351)"></path>
    <path id="パス_30" data-name="パス 30" class="cls-2 SJJGtMFy_27" d="M264.772,421.254H262.8s0,3.063,0,3.1a2.8,2.8,0,0,1-1.427,2.072,3.456,3.456,0,0,1-3.068-.153,2.9,2.9,0,0,1-1.033-3.012,2.973,2.973,0,0,1,2.672-2.012" transform="translate(-163 -351)"></path>
    <path id="パス_31" data-name="パス 31" class="cls-2 SJJGtMFy_28" d="M253.365,388.493v-1.275s.007-.249-.539-.459a3.733,3.733,0,0,0-1.238-.279,2.906,2.906,0,0,0-2.758,2.854,2.949,2.949,0,0,0,2.125,2.827,3.506,3.506,0,0,0,.784.091,2.687,2.687,0,0,0,1.8-.647" transform="translate(-139.794 -316.344)"></path>
    <path id="パス_32" data-name="パス 32" class="cls-2 SJJGtMFy_29" d="M227.672,386.416a2.744,2.744,0,0,0-2.761,2.79,2.9,2.9,0,0,0,1.052,2.137,2.607,2.607,0,0,0,1.806.557,2.826,2.826,0,0,0,1.783-.74,2.69,2.69,0,0,0,.841-1.719c0-.014,0-.132,0-.235,0,0,0,.131,0,.109a2.682,2.682,0,0,0-.2-1.2,2.617,2.617,0,0,0-.644-.932A2.832,2.832,0,0,0,227.672,386.416Z" transform="translate(-109.41 -316.172)"></path>
    <path id="パス_33" data-name="パス 33" class="cls-2 SJJGtMFy_30" d="M227.672,386.416a2.744,2.744,0,0,0-2.761,2.79,2.9,2.9,0,0,0,1.052,2.137,2.607,2.607,0,0,0,1.806.557,2.826,2.826,0,0,0,1.783-.74,2.69,2.69,0,0,0,.841-1.719c0-.014,0-.132,0-.235,0,0,0,.131,0,.109a2.682,2.682,0,0,0-.2-1.2,2.617,2.617,0,0,0-.644-.932A2.832,2.832,0,0,0,227.672,386.416Z" transform="translate(514.702 -154.663) rotate(90)"></path>
    <path id="パス_34" data-name="パス 34" class="cls-2 SJJGtMFy_31" d="M289.953,415.276h1.507v11.5h1.493" transform="translate(-163 -351)"></path>
    <path id="パス_35" data-name="パス 35" class="cls-2 SJJGtMFy_32" d="M229.382,421.315h1.56v5.07" transform="translate(-98.382 -351)"></path>
    <path id="パス_36" data-name="パス 36" class="cls-2 SJJGtMFy_33" d="M229.382,426.652h3.1" transform="translate(-98.182 -351)"></path>
    <path id="パス_37" data-name="パス 37" class="cls-3 SJJGtMFy_34" d="M231.216,418.95c.025-.16-.135-.378-.263-.369a.351.351,0,0,0-.293.306c0,.148.244.255.293.262A.267.267,0,0,0,231.216,418.95Z" transform="translate(-98.26 -351)"></path>
    <path id="パス_38" data-name="パス 38" class="cls-2 SJJGtMFy_35" d="M242.356,421.315h1.386v5.078" transform="translate(-107 -351)"></path>
    <path id="パス_39" data-name="パス 39" class="cls-2 SJJGtMFy_36" d="M242.192,426.637h3.086" transform="translate(-107 -351)"></path>
    <path id="パス_40" data-name="パス 40" class="cls-2 SJJGtMFy_37" d="M243.742,423.459s.942-2.11,2.283-2.263a1.915,1.915,0,0,1,2.061.767,1.713,1.713,0,0,1,.267.873v3.532" transform="translate(-107 -351)"></path>
    <path id="パス_41" data-name="パス 41" class="cls-2 SJJGtMFy_38" d="M246.751,426.637h3.04" transform="translate(-107 -351)"></path>
    <path id="パス_42" data-name="パス 42" class="cls-2 SJJGtMFy_39" d="M227.742,386.416a2.813,2.813,0,0,0-2.831,2.86,2.975,2.975,0,0,0,1.078,2.191,2.673,2.673,0,0,0,1.852.571,2.9,2.9,0,0,0,1.828-.759,2.758,2.758,0,0,0,.862-1.762c0-.015,0-.135,0-.241,0,0,0,.134,0,.111a2.75,2.75,0,0,0-.2-1.228,2.683,2.683,0,0,0-.661-.956A2.9,2.9,0,0,0,227.742,386.416Z" transform="translate(523.936 -174.825) rotate(87)"></path>
    <path id="パス_43" data-name="パス 43" class="cls-2 SJJGtMFy_40" d="M241.056,421.315h-1.512s.072,5.9,0,6.577-.631,2.858-2.713,2.738-2.193-1-2.193-1" transform="translate(-89.638 -351)"></path>
  </g>
<style data-made-with="vivus-instant">.SJJGtMFy_0{stroke-dasharray:10 12;stroke-dashoffset:11;animation:SJJGtMFy_draw 39ms linear 0ms forwards;}.SJJGtMFy_1{stroke-dasharray:36 38;stroke-dashoffset:37;animation:SJJGtMFy_draw 132ms linear 39ms forwards;}.SJJGtMFy_2{stroke-dasharray:10 12;stroke-dashoffset:11;animation:SJJGtMFy_draw 39ms linear 171ms forwards;}.SJJGtMFy_3{stroke-dasharray:10 12;stroke-dashoffset:11;animation:SJJGtMFy_draw 39ms linear 210ms forwards;}.SJJGtMFy_4{stroke-dasharray:29 31;stroke-dashoffset:30;animation:SJJGtMFy_draw 107ms linear 250ms forwards;}.SJJGtMFy_5{stroke-dasharray:28 30;stroke-dashoffset:29;animation:SJJGtMFy_draw 103ms linear 357ms forwards;}.SJJGtMFy_6{stroke-dasharray:10 12;stroke-dashoffset:11;animation:SJJGtMFy_draw 39ms linear 460ms forwards;}.SJJGtMFy_7{stroke-dasharray:63 65;stroke-dashoffset:64;animation:SJJGtMFy_draw 228ms linear 500ms forwards;}.SJJGtMFy_8{stroke-dasharray:49 51;stroke-dashoffset:50;animation:SJJGtMFy_draw 178ms linear 728ms forwards;}.SJJGtMFy_9{stroke-dasharray:63 65;stroke-dashoffset:64;animation:SJJGtMFy_draw 228ms linear 907ms forwards;}.SJJGtMFy_10{stroke-dasharray:63 65;stroke-dashoffset:64;animation:SJJGtMFy_draw 228ms linear 1135ms forwards;}.SJJGtMFy_11{stroke-dasharray:47 49;stroke-dashoffset:48;animation:SJJGtMFy_draw 171ms linear 1364ms forwards;}.SJJGtMFy_12{stroke-dasharray:68 70;stroke-dashoffset:69;animation:SJJGtMFy_draw 246ms linear 1535ms forwards;}.SJJGtMFy_13{stroke-dasharray:18 20;stroke-dashoffset:19;animation:SJJGtMFy_draw 67ms linear 1782ms forwards;}.SJJGtMFy_14{stroke-dasharray:15 17;stroke-dashoffset:16;animation:SJJGtMFy_draw 57ms linear 1850ms forwards;}.SJJGtMFy_15{stroke-dasharray:20 22;stroke-dashoffset:21;animation:SJJGtMFy_draw 75ms linear 1907ms forwards;}.SJJGtMFy_16{stroke-dasharray:15 17;stroke-dashoffset:16;animation:SJJGtMFy_draw 57ms linear 1982ms forwards;}.SJJGtMFy_17{stroke-dasharray:7 9;stroke-dashoffset:8;animation:SJJGtMFy_draw 28ms linear 2039ms forwards;}.SJJGtMFy_18{stroke-dasharray:4 6;stroke-dashoffset:5;animation:SJJGtMFy_draw 17ms linear 2067ms forwards;}.SJJGtMFy_19{stroke-dasharray:2 4;stroke-dashoffset:3;animation:SJJGtMFy_draw 10ms linear 2085ms forwards;}.SJJGtMFy_20{stroke-dasharray:18 20;stroke-dashoffset:19;animation:SJJGtMFy_draw 67ms linear 2096ms forwards;}.SJJGtMFy_21{stroke-dasharray:15 17;stroke-dashoffset:16;animation:SJJGtMFy_draw 57ms linear 2164ms forwards;}.SJJGtMFy_22{stroke-dasharray:7 9;stroke-dashoffset:8;animation:SJJGtMFy_draw 28ms linear 2221ms forwards;}.SJJGtMFy_23{stroke-dasharray:4 6;stroke-dashoffset:5;animation:SJJGtMFy_draw 17ms linear 2250ms forwards;}.SJJGtMFy_24{stroke-dasharray:11 13;stroke-dashoffset:12;animation:SJJGtMFy_draw 42ms linear 2267ms forwards;}.SJJGtMFy_25{stroke-dasharray:4 6;stroke-dashoffset:5;animation:SJJGtMFy_draw 17ms linear 2310ms forwards;}.SJJGtMFy_26{stroke-dasharray:17 19;stroke-dashoffset:18;animation:SJJGtMFy_draw 64ms linear 2328ms forwards;}.SJJGtMFy_27{stroke-dasharray:18 20;stroke-dashoffset:19;animation:SJJGtMFy_draw 67ms linear 2392ms forwards;}.SJJGtMFy_28{stroke-dasharray:15 17;stroke-dashoffset:16;animation:SJJGtMFy_draw 57ms linear 2460ms forwards;}.SJJGtMFy_29{stroke-dasharray:18 20;stroke-dashoffset:19;animation:SJJGtMFy_draw 67ms linear 2517ms forwards;}.SJJGtMFy_30{stroke-dasharray:18 20;stroke-dashoffset:19;animation:SJJGtMFy_draw 67ms linear 2585ms forwards;}.SJJGtMFy_31{stroke-dasharray:15 17;stroke-dashoffset:16;animation:SJJGtMFy_draw 57ms linear 2653ms forwards;}.SJJGtMFy_32{stroke-dasharray:7 9;stroke-dashoffset:8;animation:SJJGtMFy_draw 28ms linear 2710ms forwards;}.SJJGtMFy_33{stroke-dasharray:4 6;stroke-dashoffset:5;animation:SJJGtMFy_draw 17ms linear 2739ms forwards;}.SJJGtMFy_34{stroke-dasharray:2 4;stroke-dashoffset:3;animation:SJJGtMFy_draw 10ms linear 2757ms forwards;}.SJJGtMFy_35{stroke-dasharray:7 9;stroke-dashoffset:8;animation:SJJGtMFy_draw 28ms linear 2767ms forwards;}.SJJGtMFy_36{stroke-dasharray:4 6;stroke-dashoffset:5;animation:SJJGtMFy_draw 17ms linear 2796ms forwards;}.SJJGtMFy_37{stroke-dasharray:11 13;stroke-dashoffset:12;animation:SJJGtMFy_draw 42ms linear 2814ms forwards;}.SJJGtMFy_38{stroke-dasharray:4 6;stroke-dashoffset:5;animation:SJJGtMFy_draw 17ms linear 2857ms forwards;}.SJJGtMFy_39{stroke-dasharray:18 20;stroke-dashoffset:19;animation:SJJGtMFy_draw 67ms linear 2875ms forwards;}.SJJGtMFy_40{stroke-dasharray:15 17;stroke-dashoffset:16;animation:SJJGtMFy_draw 57ms linear 2942ms forwards;}@keyframes SJJGtMFy_draw{100%{stroke-dashoffset:0;}}@keyframes SJJGtMFy_fade{0%{stroke-opacity:1;}94.44444444444444%{stroke-opacity:1;}100%{stroke-opacity:0;}}</style></svg>
