<svg xmlns="http://www.w3.org/2000/svg" width="150.28" height="83" viewBox="0 0 150.28 83">
  <defs>
    <style>
      .cls-1, .cls-2 {
        fill: #707070;
      }

      .cls-2 {
        font-size: 16px;
        font-family: JosefinSlab-Regular, Josefin Slab;
      }
    </style>
  </defs>
  <g id="logo" transform="translate(-67.82 -108)">
    <path id="パス_1" data-name="パス 1" class="cls-1" d="M24.8-.728h3.432q-4.056-5.2-8.138-10.4t-8.19-10.4L6.5-16.432q0,3.952.026,7.878T6.552-.728h4.316V0H1.82V-.728h4V-35.672h-4V-36.4h9.048v.728H6.552V-18.72q0,.416-.026.754t-.026.754l.884-1.04,18.252-17.42H22.308V-36.4h9.048v.728H26.78L12.48-22.048q4.212,5.356,8.4,10.66t8.4,10.66h4.576V0H24.8Zm12.74-9.048a10.173,10.173,0,0,1,.78-3.952,9.96,9.96,0,0,1,2.158-3.25,10.481,10.481,0,0,1,3.2-2.184,9.649,9.649,0,0,1,3.952-.806,9.888,9.888,0,0,1,3.952.806,10.31,10.31,0,0,1,3.25,2.184,10.31,10.31,0,0,1,2.184,3.25,9.888,9.888,0,0,1,.806,3.952,9.649,9.649,0,0,1-.806,3.952,10.481,10.481,0,0,1-2.184,3.2,9.96,9.96,0,0,1-3.25,2.158,10.173,10.173,0,0,1-3.952.78,9.926,9.926,0,0,1-3.952-.78,10.11,10.11,0,0,1-3.2-2.158,10.11,10.11,0,0,1-2.158-3.2A9.926,9.926,0,0,1,37.544-9.776Zm.728,0A9.167,9.167,0,0,0,39-6.11a9.419,9.419,0,0,0,2,2.964,9.419,9.419,0,0,0,2.964,2,9.167,9.167,0,0,0,3.666.728,9.223,9.223,0,0,0,3.64-.728,9.651,9.651,0,0,0,3.016-2A9.21,9.21,0,0,0,56.316-6.11a9.167,9.167,0,0,0,.728-3.666,9.223,9.223,0,0,0-.728-3.64,9.433,9.433,0,0,0-2.028-3.016,9.433,9.433,0,0,0-3.016-2.028,9.223,9.223,0,0,0-3.64-.728,9.167,9.167,0,0,0-3.666.728A9.21,9.21,0,0,0,41-16.432a9.651,9.651,0,0,0-2,3.016A9.223,9.223,0,0,0,38.272-9.776ZM77.948-1.924A11.25,11.25,0,0,1,74.984-.286a9.788,9.788,0,0,1-3.432.6A9.926,9.926,0,0,1,67.6-.468a10.11,10.11,0,0,1-3.2-2.158,10.11,10.11,0,0,1-2.158-3.2,9.926,9.926,0,0,1-.78-3.952,10.173,10.173,0,0,1,.78-3.952A9.669,9.669,0,0,1,64.4-16.952a10.721,10.721,0,0,1,3.2-2.158,9.649,9.649,0,0,1,3.952-.806,10,10,0,0,1,3.458.6,10.341,10.341,0,0,1,2.938,1.638v4.524H77.22v-4.108a10.332,10.332,0,0,0-2.626-1.4,8.832,8.832,0,0,0-3.042-.52,9.167,9.167,0,0,0-3.666.728,9.21,9.21,0,0,0-2.964,2.028,9.651,9.651,0,0,0-2,3.016,9.223,9.223,0,0,0-.728,3.64A9.167,9.167,0,0,0,62.92-6.11a9.42,9.42,0,0,0,2,2.964,9.419,9.419,0,0,0,2.964,2,9.167,9.167,0,0,0,3.666.728,9.245,9.245,0,0,0,3.172-.546,9.723,9.723,0,0,0,2.7-1.482ZM81.64-9.776a10.173,10.173,0,0,1,.78-3.952,9.96,9.96,0,0,1,2.158-3.25,10.481,10.481,0,0,1,3.2-2.184,9.649,9.649,0,0,1,3.952-.806,9.888,9.888,0,0,1,3.952.806,10.31,10.31,0,0,1,3.25,2.184,10.31,10.31,0,0,1,2.184,3.25,9.888,9.888,0,0,1,.806,3.952,9.649,9.649,0,0,1-.806,3.952,10.481,10.481,0,0,1-2.184,3.2A9.96,9.96,0,0,1,95.68-.468a10.173,10.173,0,0,1-3.952.78,9.926,9.926,0,0,1-3.952-.78,10.11,10.11,0,0,1-3.2-2.158,10.11,10.11,0,0,1-2.158-3.2A9.926,9.926,0,0,1,81.64-9.776Zm.728,0A9.167,9.167,0,0,0,83.1-6.11a9.419,9.419,0,0,0,2,2.964,9.419,9.419,0,0,0,2.964,2,9.167,9.167,0,0,0,3.666.728,9.223,9.223,0,0,0,3.64-.728,9.651,9.651,0,0,0,3.016-2,9.21,9.21,0,0,0,2.028-2.964,9.167,9.167,0,0,0,.728-3.666,9.224,9.224,0,0,0-.728-3.64,9.433,9.433,0,0,0-2.028-3.016,9.433,9.433,0,0,0-3.016-2.028,9.223,9.223,0,0,0-3.64-.728,9.167,9.167,0,0,0-3.666.728A9.21,9.21,0,0,0,85.1-16.432a9.651,9.651,0,0,0-2,3.016A9.223,9.223,0,0,0,82.368-9.776ZM125.06-2.808q0-.832.026-1.638t.026-1.638A10.346,10.346,0,0,1,123.6-3.51a10.414,10.414,0,0,1-2.158,2.028,9.817,9.817,0,0,1-2.7,1.326,10.213,10.213,0,0,1-3.094.468,9.926,9.926,0,0,1-3.952-.78,10.11,10.11,0,0,1-3.2-2.158,10.11,10.11,0,0,1-2.158-3.2,9.926,9.926,0,0,1-.78-3.952,10.173,10.173,0,0,1,.78-3.952,9.669,9.669,0,0,1,2.158-3.224,10.721,10.721,0,0,1,3.2-2.158,9.649,9.649,0,0,1,3.952-.806,10.213,10.213,0,0,1,3.094.468,9.817,9.817,0,0,1,2.7,1.326,9.87,9.87,0,0,1,2.132,2.028,10.818,10.818,0,0,1,1.482,2.574V-38.272h-3.8V-39h4.524V-.728h3.8V0H125.06ZM106.288-9.776a9.167,9.167,0,0,0,.728,3.666,9.419,9.419,0,0,0,2,2.964,9.419,9.419,0,0,0,2.964,2,9.167,9.167,0,0,0,3.666.728,9.223,9.223,0,0,0,3.64-.728,9.651,9.651,0,0,0,3.016-2,9.21,9.21,0,0,0,2.028-2.964,9.167,9.167,0,0,0,.728-3.666,9.224,9.224,0,0,0-.728-3.64,9.433,9.433,0,0,0-2.028-3.016,9.433,9.433,0,0,0-3.016-2.028,9.223,9.223,0,0,0-3.64-.728,9.167,9.167,0,0,0-3.666.728,9.21,9.21,0,0,0-2.964,2.028,9.651,9.651,0,0,0-2,3.016A9.223,9.223,0,0,0,106.288-9.776Zm37.024-9.412a8.8,8.8,0,0,0-4.29,1.066A9.826,9.826,0,0,0,135.8-15.34a9.672,9.672,0,0,0-1.716,3.9,8.934,8.934,0,0,0,.234,4.42q4.212-1.716,8.424-3.406t8.424-3.406a9.062,9.062,0,0,0-3.146-3.874A7.988,7.988,0,0,0,143.312-19.188Zm8.788,5.72q-4.42,1.82-8.762,3.562t-8.762,3.562a9.252,9.252,0,0,0,3.38,4.29,9.11,9.11,0,0,0,5.356,1.638,9.3,9.3,0,0,0,3.536-.676,9.128,9.128,0,0,0,2.912-1.872,1.871,1.871,0,0,0,.234.286,1.871,1.871,0,0,1,.234.286,10.385,10.385,0,0,1-3.12,1.976,9.871,9.871,0,0,1-3.8.728,9.926,9.926,0,0,1-3.952-.78,10.11,10.11,0,0,1-3.2-2.158A10.11,10.11,0,0,1,134-5.824a9.926,9.926,0,0,1-.78-3.952,10.172,10.172,0,0,1,.78-3.952,9.669,9.669,0,0,1,2.158-3.224,10.721,10.721,0,0,1,3.2-2.158,9.649,9.649,0,0,1,3.952-.806,8.675,8.675,0,0,1,5.382,1.794A10,10,0,0,1,152.1-13.468Z" transform="translate(66 147)"/>
    <text id="design_coding_" data-name="design &amp; coding
" class="cls-2" transform="translate(87 168)"><tspan x="0" y="0">design &amp; coding</tspan><tspan x="0" y="19"></tspan></text>
  </g>
</svg>
