<svg xmlns="http://www.w3.org/2000/svg" width="130.641" height="29.83" viewBox="0 0 130.641 29.83" style="">
  <g id="service" transform="translate(-199.746 -358.417)">
    <path id="パス_1" data-name="パス 1" d="M146.791,855.861c-.323-2.328-1.285-5.647-7.1-5.742s-6.612,3.421-6.586,3.958-1.285,3.587,6.586,5.585,7.919,4.633,7.1,7.609-6.066,3.438-7.1,3.318a11.691,11.691,0,0,1-3.366-.616,5.681,5.681,0,0,1-2.771-2.247,11.431,11.431,0,0,1-1.113-3.8" transform="translate(68 -491)" fill="none" stroke="#2b5e96" stroke-width="1.4" class="whMNwOzM_0"></path>
    <path id="パス_2" data-name="パス 2" d="M156.921,854.4h12.12" transform="translate(67.931 -491)" fill="none" stroke="#343434" stroke-width="1.4" class="whMNwOzM_1"></path>
    <path id="パス_3" data-name="パス 3" d="M157.628,853.933v16.4h11.759" transform="translate(68 -491)" fill="none" stroke="#343434" stroke-width="1.4" class="whMNwOzM_2"></path>
    <path id="パス_4" data-name="パス 4" d="M157.628,862.132h10.848" transform="translate(68 -491)" fill="#343434" stroke="#343434" stroke-width="1.4" class="whMNwOzM_3"></path>
    <path id="パス_5" data-name="パス 5" d="M177.713,853.933v17" transform="translate(68 -491)" fill="none" stroke="#343434" stroke-width="1.4" class="whMNwOzM_4"></path>
    <path id="パス_6" data-name="パス 6" d="M176.905,854.4s5.255-.023,7.038,0,5.071.871,4.978,4-2.337,4.324-4.978,4.271-6.87,0-6.87,0,8.375-.038,9.336.538a4.151,4.151,0,0,1,1.866,2.006,5.374,5.374,0,0,1,.361,1.919c.017.388.049.747.135,1.384a7.027,7.027,0,0,0,.771,2.546" transform="translate(68 -491)" fill="none" stroke="#343434" stroke-width="1.4" class="whMNwOzM_5"></path>
    <path id="パス_7" data-name="パス 7" d="M197,853.933l6.471,17.082,6.631-17.082" transform="translate(68 -491)" fill="none" stroke="#343434" stroke-linejoin="bevel" stroke-width="1.4" class="whMNwOzM_6"></path>
    <path id="パス_8" data-name="パス 8" d="M218.542,853.933v17.125" transform="translate(68 -491)" fill="none" stroke="#343434" stroke-width="1.4" class="whMNwOzM_7"></path>
    <path id="パス_9" data-name="パス 9" d="M241.41,858.99c-.062-.569-.839-4.691-6.273-4.671s-7.621,4.936-7.369,8.4,1.94,8.237,7.369,7.893a7.351,7.351,0,0,0,6.646-5.382" transform="translate(68 -491)" fill="none" stroke="#343434" stroke-width="1.4" class="whMNwOzM_8"></path>
    <path id="パス_10" data-name="パス 10" d="M156.921,854.4h12.12" transform="translate(160.931 -491)" fill="none" stroke="#343434" stroke-width="1.4" class="whMNwOzM_9"></path>
    <path id="パス_11" data-name="パス 11" d="M157.628,853.933v16.4h11.759" transform="translate(161 -491)" fill="none" stroke="#343434" stroke-width="1.4" class="whMNwOzM_10"></path>
    <path id="パス_12" data-name="パス 12" d="M157.628,862.132h10.848" transform="translate(161 -491)" fill="none" stroke="#343434" stroke-width="1.4" class="whMNwOzM_11"></path>
    <path id="パス_13" data-name="パス 13" d="M242.528,387.548h43.886" fill="none" stroke="#2b5e96" stroke-width="1.4" class="whMNwOzM_12"></path>
  </g>
<style data-made-with="vivus-instant">.whMNwOzM_0{stroke-dasharray:60 62;stroke-dashoffset:61;animation:whMNwOzM_draw 205ms linear 0ms forwards;}.whMNwOzM_1{stroke-dasharray:13 15;stroke-dashoffset:14;animation:whMNwOzM_draw 47ms linear 205ms forwards;}.whMNwOzM_2{stroke-dasharray:29 31;stroke-dashoffset:30;animation:whMNwOzM_draw 101ms linear 253ms forwards;}.whMNwOzM_3{stroke-dasharray:11 13;stroke-dashoffset:12;animation:whMNwOzM_draw 40ms linear 354ms forwards;}.whMNwOzM_4{stroke-dasharray:17 19;stroke-dashoffset:18;animation:whMNwOzM_draw 60ms linear 395ms forwards;}.whMNwOzM_5{stroke-dasharray:47 49;stroke-dashoffset:48;animation:whMNwOzM_draw 162ms linear 455ms forwards;}.whMNwOzM_6{stroke-dasharray:37 39;stroke-dashoffset:38;animation:whMNwOzM_draw 128ms linear 617ms forwards;}.whMNwOzM_7{stroke-dasharray:18 20;stroke-dashoffset:19;animation:whMNwOzM_draw 64ms linear 746ms forwards;}.whMNwOzM_8{stroke-dasharray:43 45;stroke-dashoffset:44;animation:whMNwOzM_draw 148ms linear 810ms forwards;}.whMNwOzM_9{stroke-dasharray:13 15;stroke-dashoffset:14;animation:whMNwOzM_draw 47ms linear 958ms forwards;}.whMNwOzM_10{stroke-dasharray:29 31;stroke-dashoffset:30;animation:whMNwOzM_draw 101ms linear 1006ms forwards;}.whMNwOzM_11{stroke-dasharray:11 13;stroke-dashoffset:12;animation:whMNwOzM_draw 40ms linear 1107ms forwards;}.whMNwOzM_12{stroke-dasharray:44 46;stroke-dashoffset:45;animation:whMNwOzM_draw 151ms linear 1148ms forwards;}@keyframes whMNwOzM_draw{100%{stroke-dashoffset:0;}}@keyframes whMNwOzM_fade{0%{stroke-opacity:1;}92.72727272727273%{stroke-opacity:1;}100%{stroke-opacity:0;}}</style></svg>
