<svg xmlns="http://www.w3.org/2000/svg" width="112.172" height="31.888" viewBox="0 0 112.172 31.888" style="">
  <g id="works" transform="translate(-208.721 -356.134)">
    <path id="パス_1" data-name="パス 1" d="M209.393,358.574l6.305,21.515,6.613-21.515,6.273,21.515,6.232-21.515" fill="none" stroke="#2b5e96" stroke-linejoin="bevel" stroke-width="1.4" class="HJhJfSyf_0"></path>
    <path id="パス_2" data-name="パス 2" d="M250.9,363.168c-7.148-.074-7.371,7.412-7.281,8.929s.755,7.346,7.281,7.558,7.553-5.718,7.6-7.558S258.045,363.243,250.9,363.168Z" fill="none" stroke="#343434" stroke-width="1.4" class="HJhJfSyf_1"></path>
    <path id="パス_3" data-name="パス 3" d="M267.376,362.807v17.178" fill="none" stroke="#343434" stroke-width="1.4" class="HJhJfSyf_2"></path>
    <path id="パス_4" data-name="パス 4" d="M266.706,363.525s6.2-.011,7.695,0,4.39.931,4.286,3.943a4.556,4.556,0,0,1-4.286,4.3H267.87s7.433-.178,7.963.251,2.336.6,2.548,3.486a16.429,16.429,0,0,0,1.025,4.789" fill="none" stroke="#343434" stroke-width="1.4" class="HJhJfSyf_3"></path>
    <path id="パス_5" data-name="パス 5" d="M288.136,362.843v17.139" fill="none" stroke="#343434" stroke-width="1.4" class="HJhJfSyf_4"></path>
    <path id="パス_6" data-name="パス 6" d="M299.773,362.843l-11.4,10.712" fill="none" stroke="#343434" stroke-width="1.4" class="HJhJfSyf_5"></path>
    <path id="パス_7" data-name="パス 7" d="M292.15,370.265l8.814,9.8" fill="none" stroke="#343434" stroke-width="1.4" class="HJhJfSyf_6"></path>
    <path id="パス_8" data-name="パス 8" d="M319.685,367.884s-.3-4.788-5.207-4.614-5.81,1.617-5.556,4.614,7.961,3.082,10.043,5.032a3.728,3.728,0,0,1,1.12,3.557c-.346,1.651-2.567,3.516-6.2,3.278-5.91-.387-5.652-5.316-5.652-5.316" fill="none" stroke="#343434" stroke-width="1.4" class="HJhJfSyf_7"></path>
    <path id="パス_9" data-name="パス 9" d="M242.5,387.322h44.014" fill="none" stroke="#2b5e96" stroke-width="1.4" class="HJhJfSyf_8"></path>
  </g>
<style data-made-with="vivus-instant">.HJhJfSyf_0{stroke-dasharray:90 92;stroke-dashoffset:91;animation:HJhJfSyf_draw 333ms linear 0ms forwards;}.HJhJfSyf_1{stroke-dasharray:51 53;stroke-dashoffset:52;animation:HJhJfSyf_draw 190ms linear 333ms forwards;}.HJhJfSyf_2{stroke-dasharray:18 20;stroke-dashoffset:19;animation:HJhJfSyf_draw 69ms linear 523ms forwards;}.HJhJfSyf_3{stroke-dasharray:45 47;stroke-dashoffset:46;animation:HJhJfSyf_draw 168ms linear 593ms forwards;}.HJhJfSyf_4{stroke-dasharray:18 20;stroke-dashoffset:19;animation:HJhJfSyf_draw 69ms linear 761ms forwards;}.HJhJfSyf_5{stroke-dasharray:16 18;stroke-dashoffset:17;animation:HJhJfSyf_draw 62ms linear 831ms forwards;}.HJhJfSyf_6{stroke-dasharray:14 16;stroke-dashoffset:15;animation:HJhJfSyf_draw 54ms linear 893ms forwards;}.HJhJfSyf_7{stroke-dasharray:49 51;stroke-dashoffset:50;animation:HJhJfSyf_draw 183ms linear 948ms forwards;}.HJhJfSyf_8{stroke-dasharray:45 47;stroke-dashoffset:46;animation:HJhJfSyf_draw 168ms linear 1131ms forwards;}@keyframes HJhJfSyf_draw{100%{stroke-dashoffset:0;}}@keyframes HJhJfSyf_fade{0%{stroke-opacity:1;}92.72727272727273%{stroke-opacity:1;}100%{stroke-opacity:0;}}</style></svg>
